<svg width="155" height="247" viewBox="0 0 155 247" fill="none" xmlns="http://www.w3.org/2000/svg">
<path d="M102.96 174.182C102.96 189.803 103.183 205.055 103.183 220.742C103.183 224.303 102.727 228.377 101.914 230.58C101.29 232.416 98.9967 235.342 96.7505 236.42C93.6739 237.883 89.9562 238.071 86.6988 238.728C85.1024 239.048 81.2211 239.832 80.9888 242.035C80.7779 244.05 83.5146 244.852 84.9561 245.08C89.0611 245.728 93.4071 245.544 97.5337 245.544C103.726 245.544 109.926 245.614 116.101 245.325C121.858 245.058 127.986 245.124 133.188 244.694C138.39 244.265 140.783 241.282 137.276 239.022C135.34 237.777 131.067 237.778 128.859 237.48C126.402 237.151 123.971 237.042 121.505 236.516C116.531 235.482 114.018 232 113.954 226.616C113.739 209.002 114.178 191.349 114.178 173.705" stroke="#442257" stroke-width="1.5" stroke-linecap="round" stroke-linejoin="round"/>
<path d="M153.979 162.15C153.883 159.412 153.346 154.251 152.626 152.024C151.905 149.797 148.361 148.288 145.288 150.32C143.638 153.138 139.522 154.149 136.191 154.686C131.093 155.507 125.956 155.574 120.84 156.182C113.363 157.069 106.771 157.752 99.2025 157.069C93.8205 156.577 88.29 156.745 82.9342 156.452C80.8564 156.337 78.7045 156.261 76.6311 156.337C75.1383 156.395 73.3879 157.198 71.9082 156.963C71.4404 156.889 70.9937 156.713 70.5987 156.448C70.6479 156.679 70.6456 156.919 70.5919 157.149C70.5383 157.379 70.4348 157.595 70.2888 157.779C69.1495 159.075 65.6881 157.451 62.4318 155.671C63.8286 156.67 65.1207 157.712 66.0635 158.502C69.992 161.777 66.0373 161.852 63.0997 162.939C66.5917 162.895 67.5301 163.618 68.1107 167.159C68.5181 169.62 68.8716 172.102 69.1714 174.605H69.5817C69.5817 174.605 86.2472 174.937 89.6606 174.849C97.6486 174.631 115.96 174.578 123.948 174.361C129.736 174.201 132.276 174.165 138.068 173.952C141.848 173.815 147.021 173.424 150.417 171.769C153.599 170.194 154.123 165.721 153.979 162.15Z" fill="#FAB550" stroke="#FAB550" stroke-width="1.5" stroke-linecap="round" stroke-linejoin="round"/>
<path d="M71.7045 29.9773L54.3182 48.5227" stroke="#442257" stroke-width="1.5" stroke-linecap="round" stroke-linejoin="round"/>
<path d="M31.1364 72.8636L27.6591 76.3409" stroke="#442257" stroke-width="1.5" stroke-linecap="round" stroke-linejoin="round"/>
<path d="M58.3914 53.3759C58.6553 50.3826 53.7191 48.8597 51.6209 48.3099C45.4324 46.6008 38.8387 47.2212 33.0703 50.0553C22.9471 55.1737 13.9659 61.156 4.46567 67.5092C4.46567 67.5092 3.7778 66.6801 2.96881 67.1209C2.15981 67.5616 2.53619 68.3033 2.57946 68.683C2.49293 68.683 1.2816 67.8103 1.02203 69.1979C0.762461 70.5854 2.86065 75.0362 3.9422 77.3008C5.6698 80.7059 7.7508 83.9165 10.1503 86.8786C11.3616 88.3666 12.8801 88 13.5377 87.459C14.1952 86.9179 14.2212 85.7703 13.8491 84.8758C15.2076 86.5601 15.8002 84.6009 16.0122 84.0904C16.4448 83.0911 16.5616 82.1486 17.8292 80.9967C21.195 77.9422 24.9285 74.4907 28.3807 71.6807C29.5826 72.4958 31.0085 72.908 32.456 72.8588C34.5412 72.7192 37.8594 71.8989 39.6071 70.4633C37.9286 71.8116 36.5269 72.2523 37.4441 73.0814C38.664 74.1722 42.5403 73.1337 45.5946 71.8334C48.6488 70.5331 50.3923 65.5413 46.3733 64.9347C49.3756 64.9347 51.9065 61.1734 49.0123 59.1488L48.8262 59.2404L48.9906 59.1357C53.1913 57.2507 59.4513 59.2055 60.0656 55.9984C60.3079 54.8508 59.6157 54.0043 58.3914 53.3759Z" fill="#ABDDDF" stroke="#ABDDDF" stroke-width="1.5" stroke-linecap="round" stroke-linejoin="round"/>
<path d="M74.0227 9.11365C73.1079 10.41 72.2885 11.7063 71.5211 12.6871C68.5425 16.6063 65.811 22.3101 63.8123 26.8298C62.6243 29.5132 66.522 29.954 68.2823 30.9521C67.8424 32.9494 67.5453 34.9753 67.3935 37.0145C67.1941 40.2985 66.9946 42.8738 67.1594 46.1492C67.3198 49.243 68.226 56.0875 69.0281 61.2727" stroke="#442257" stroke-width="1.5" stroke-linecap="round" stroke-linejoin="round"/>
<path d="M100.235 60.1136C99.5949 57.6637 98.4018 48.602 97.9736 46.1075C100.771 46.3966 104.625 44.9515 105.232 41.8701C105.747 39.3135 103.873 37.317 101.715 36.8324C99.8443 36.4144 98.4725 37.0947 97.2045 38.0774C97.2045 36.9302 97.2045 35.7742 97.2877 34.6136" stroke="#442257" stroke-width="1.5" stroke-linecap="round" stroke-linejoin="round"/>
<path d="M92.5682 52.0727C90.1187 48.4786 89.8334 41.8584 90.4172 38.0909C90.4172 38.0909 80.4001 39.4349 74.4301 39.9898C71.7393 40.2369 68.9826 40.3757 66.2346 40.3757C66.2346 40.3757 65.8615 45.0016 65.9142 46.558C66.095 50.2029 66.7003 53.815 67.7183 57.323C71.8271 58.0383 75.2993 57.9169 79.6055 57.1236C83.7142 56.3649 87.4235 55.2116 91.0186 53.0179L92.5682 52.0727Z" fill="#F15D4A" stroke="#F15D4A" stroke-width="1.5" stroke-linecap="round" stroke-linejoin="round"/>
<path d="M79.8182 45.0455C77.6828 45.7948 72.8636 48.2218 71.7045 49.6818" stroke="#442257" stroke-width="1.5" stroke-linecap="round" stroke-linejoin="round"/>
<path d="M77.5 49.6818C77.2371 49.9042 75.4522 51.6665 75.1818 52" stroke="#442257" stroke-width="1.5" stroke-linecap="round" stroke-linejoin="round"/>
<path d="M71.7045 28.8182C73.0632 28.9048 74.0991 29.4843 75.1818 29.9773" stroke="#442257" stroke-width="1.5" stroke-linecap="round" stroke-linejoin="round"/>
<path d="M71.1725 18.3864C72.2224 18.811 73.1344 19.7103 74.0227 20.5047C72.8412 20.8914 71.6804 21.345 70.5455 21.8636" stroke="#442257" stroke-width="1.5" stroke-linecap="round" stroke-linejoin="round"/>
<path d="M84.4545 20.7045C83.07 20.9396 82.1177 21.4392 80.9773 21.7575C81.8782 22.5029 82.7427 23.3124 83.5662 24.1818" stroke="#442257" stroke-width="1.5" stroke-linecap="round" stroke-linejoin="round"/>
<path d="M74.0227 8.71773C76.9052 11.6533 83.8587 9.92751 87.0851 8.91285C85.9879 9.51558 86.2143 10.3004 87.1679 10.9248C88.2738 11.6663 90.538 10.5953 91.6962 10.6083C92.6454 10.6083 93.4988 10.9985 94.4349 11.0419C93.8384 11.9958 92.6497 13.1016 93.0634 14.5108C93.8798 14.5757 94.6854 14.7388 95.4625 14.9964C95.7237 19.9093 94.7266 24.6183 95.6628 29.5529C95.9153 30.8971 96.133 33.5811 97.4654 34.392C99.1113 35.398 99.6425 32.7399 100.034 31.2266C101.58 25.4205 102.86 20.1521 103.988 14.3157C104.589 11.185 103.631 8.6787 100.753 6.78815C97.5568 4.6938 94.3783 2.88563 90.7383 1.8623C86.8195 0.769594 83.0532 0.513762 79.2999 2.29591C77.3232 3.19783 74.4799 5.37023 74.0227 8.71773Z" stroke="#442257" stroke-width="1.5" stroke-linecap="round" stroke-linejoin="round"/>
<path d="M75.1818 82.1363C75.7175 78.0539 77.1789 73.9628 78.0874 69.9362C78.4774 68.2155 80.0802 62.9629 80.0802 62.9629C80.7616 64.7482 81.5116 66.8991 82.223 68.7102C82.6516 69.7426 83.5944 73.3691 84.6015 73.9886C87.1429 75.5459 94.9683 68.9382 97.1454 67.4885C99.0824 66.1979 101.701 65.0364 103.282 63.2898C104.512 61.9347 104.452 61.668 103.077 60.128C101.881 58.7944 102.185 58.8718 100.188 59.0568C97.2629 59.3434 94.367 59.8773 91.5313 60.6528C88.2185 61.5132 83.4958 63.1178 80.0631 62.9629" stroke="#442257" stroke-width="1.5" stroke-linecap="round" stroke-linejoin="round"/>
<path d="M75.1818 79.8182C74.3146 76.1712 72.8619 72.7108 72.0597 69.0639C71.561 66.7895 71.3789 64.4841 70.6721 62.4318C69.4536 65.4924 69.9176 69.4592 68.3262 72.3466C65.1997 69.8412 64.4886 66.6651 64.8268 62.614C66.6784 62.5118 70.6721 62.4318 70.6721 62.4318" stroke="#442257" stroke-width="1.5" stroke-linecap="round" stroke-linejoin="round"/>
<path d="M103 63.5909C109.442 64.1079 115.832 65.1423 122.11 66.6841C126.142 67.7443 129.299 68.5252 131.477 72.5521C135.011 79.0963 136.241 87.7477 137.73 95.0248C139.337 102.93 140.38 110.914 142.455 118.697C143.022 120.844 145.945 127.148 141.996 127.654C143.672 127.654 146.045 130.08 143.827 131.219C144.395 132.117 144.953 133.627 144.027 134.072C143.1 134.517 141.719 134.259 140.129 133.636C138.241 132.894 134.933 131.315 133.04 130.381C131.832 129.788 123.44 125.975 123.202 127.763" stroke="#442257" stroke-width="1.5" stroke-linecap="round" stroke-linejoin="round"/>
<path d="M143.568 131.977C137.994 131.151 133.779 127.111 129.659 126.182" stroke="#442257" stroke-width="1.5" stroke-linecap="round" stroke-linejoin="round"/>
<path d="M142.409 127.341C139.738 127.158 138.431 125.639 136.614 125.023" stroke="#442257" stroke-width="1.5" stroke-linecap="round" stroke-linejoin="round"/>
<path d="M130.818 104.159C129.492 108.709 127.901 114.088 126.463 118.486C125.34 121.959 124.534 125.527 123.468 129.022C121.682 134.874 120.027 141.178 116.533 146.188C113.872 149.999 110.084 152.227 105.638 151.567C102.409 151.089 99.8171 149.083 97.0173 147.369C92.1156 144.364 87.2355 141.547 81.8484 139.515C78.4332 138.213 73.8608 136.311 70.4413 135.135C68.0836 134.323 62.3801 133.055 56.6375 133.055C56.5768 128.974 58.9129 125.015 60.5381 122.988C62.5534 120.465 65.7172 120.348 68.6253 120.222C73.4187 120.018 78.1125 120.222 82.8842 120.426C86.7588 120.591 90.9454 122.441 94.7637 122.163" stroke="#442257" stroke-width="1.5" stroke-linecap="round" stroke-linejoin="round"/>
<path d="M95.1316 130.818C95.2832 128.574 94.24 122.203 95.5774 120.56C98.0516 117.566 100.423 123.898 100.847 125.406C100.673 123.833 97.9535 119.78 99.2107 118.412C100.307 117.222 103.718 119.475 104.159 119.841" stroke="#442257" stroke-width="1.5" stroke-linecap="round" stroke-linejoin="round"/>
<path d="M99.5227 118.068C104.454 106.88 106.981 95.9118 111.114 84.4545" stroke="#442257" stroke-width="1.5" stroke-linecap="round" stroke-linejoin="round"/>
<path d="M93.7273 97.2046C94.2703 96.3579 95.695 95.8265 96.238 96.9126C96.9712 96.5885 97.7427 96.3053 98.5446 96.0659C98.6054 96.3287 98.8487 96.5126 98.8313 96.8688C99.4884 96.6376 100.108 96.3617 100.682 96.0455" stroke="#442257" stroke-width="1.5" stroke-linecap="round" stroke-linejoin="round"/>
<path d="M62.4318 92.5682C62.9805 98.3558 63.8484 104.101 65.0304 109.772C65.7057 112.89 66.4719 116.209 67.0682 119.227" stroke="#442257" stroke-width="1.5" stroke-linecap="round" stroke-linejoin="round"/>
<path d="M143.969 134.715C143.969 134.715 145.513 139.932 145.971 141.636C146.416 143.307 146.754 145.005 146.982 146.719C147.727 152.42 141.75 153.981 137.221 154.691C132.129 155.491 126.997 155.556 121.888 156.149C114.42 157.014 107.836 157.68 100.281 157.014C94.9012 156.534 89.3601 156.698 84.0282 156.412C81.953 156.3 79.8036 156.226 77.7328 156.3C76.2418 156.356 74.4935 157.139 73.0156 156.91C69.8025 156.404 68.9916 151.719 68.1546 148.946C68.5251 150.884 72.9502 155.98 71.4025 157.697C69.3535 159.968 59.8058 153.034 57.4516 152.584C60.2897 153.017 64.8107 156.477 67.1649 158.402C71.0886 161.595 67.1388 161.668 64.2047 162.728C67.6924 162.685 68.6298 163.39 69.2096 166.842C71.4113 179.922 72.0521 193.617 72.0521 206.845C72.0521 208.921 72.2091 217.17 72.2091 217.17C72.2091 217.17 69.6979 217.516 68.2548 217.698C64.9371 218.131 61.6717 218.52 58.3235 218.676C54.4521 218.857 50.572 218.909 46.6962 218.909H40.1959C39.7948 214.627 38.9185 209.76 38.561 205.331C37.3796 190.818 36.2417 176.133 36.2417 161.521C36.2417 153.696 34.0183 140.589 39.2542 134.295" stroke="#442257" stroke-width="1.5" stroke-linecap="round" stroke-linejoin="round"/>
<path d="M142.409 152.956C144.401 152.721 147.041 152.746 148.205 154" stroke="#442257" stroke-width="1.5" stroke-linecap="round" stroke-linejoin="round"/>
<path d="M77.5 160.955C78.4289 158.823 81.4752 156.94 83.2955 156.318" stroke="#442257" stroke-width="1.5" stroke-linecap="round" stroke-linejoin="round"/>
<path d="M72.8636 245.568H39.2684C39.1186 241.618 39.8373 241.397 43.1951 240.832C47.6907 240.074 52.5799 240.027 57.161 240.036C61.5754 240.036 69.4203 239.773 70.9816 239.773C72.5428 239.773 72.8465 242.71 72.8636 245.568Z" fill="#442257" stroke="#442257" stroke-width="1.5" stroke-linecap="round" stroke-linejoin="round"/>
<path d="M70.5454 239.773C70.5454 239.773 69.3864 220.538 69.3864 217.75" stroke="#442257" stroke-width="1.5" stroke-linecap="round" stroke-linejoin="round"/>
<path d="M47.3636 239.773C47.3636 239.773 47.086 229.813 46.7986 225.824C46.7147 224.687 46.2045 218.909 46.2045 218.909" stroke="#442257" stroke-width="1.5" stroke-linecap="round" stroke-linejoin="round"/>
<path d="M39.25 213.989C39.25 213.989 32.4611 214.792 30.2739 215.146C26.7201 215.718 23.4195 216.281 19.7217 216.591C19.7217 216.591 19.0493 209.968 18.6913 206.956C18.019 201.324 16.1592 182.73 15.7488 179.224C15.1506 174.142 15.0284 169.004 14.5613 163.896C13.6619 154.086 11.431 140.089 22.3979 136.326C25.729 135.182 33.9936 134.579 38.9881 134.295" stroke="#442257" stroke-width="1.5" stroke-linecap="round" stroke-linejoin="round"/>
<path d="M26.5 216.591C27.6471 222.06 28.4065 227.517 29.094 233.097C29.3378 235.073 29.9773 238.614 29.9773 238.614" stroke="#442257" stroke-width="1.5" stroke-linecap="round" stroke-linejoin="round"/>
<path d="M46.38 237.459C40.1448 237.416 33.9113 237.664 27.7036 238.204C26.0741 238.357 15.887 238.542 17.3753 242.091H47.3636L46.38 237.459Z" fill="#442257" stroke="#442257" stroke-width="1.5" stroke-linecap="round" stroke-linejoin="round"/>
<path d="M28.8151 237.002C28.9498 234.56 24.6667 223.374 22.3588 226.369C20.253 229.113 25.6354 235.469 27.4126 237.455C26.0481 236.671 21.647 228.85 19.7645 232.532C18.1683 235.649 25.7154 237.878 28.8151 237.002Z" stroke="#442257" stroke-width="1.5" stroke-linecap="round" stroke-linejoin="round"/>
<path d="M48.5227 239.773C50.8202 237.232 52.5262 228.094 55.738 229.484C58.9499 230.874 53.7363 237.681 50.2469 239.533C51.3342 238.287 59.1728 232.561 58.9499 236.918C58.7543 240.627 51.3115 238.557 48.5227 239.773Z" stroke="#442257" stroke-width="1.5" stroke-linecap="round" stroke-linejoin="round"/>
<path d="M56.5518 131.914C51.7245 133.669 43.6636 129.627 39.2656 134.295C38.9936 130.056 42.3293 124.959 45.8817 123.397C50.9809 121.162 56.0376 121.364 61.2727 121.887" stroke="#442257" stroke-width="1.5" stroke-linecap="round" stroke-linejoin="round"/>
<path d="M29.9773 129.659C27.1702 130.255 23.5312 132.321 23.0227 135.455" stroke="#442257" stroke-width="1.5" stroke-linecap="round" stroke-linejoin="round"/>
<path d="M41.5682 126.133C38.1778 124.498 33.8735 123.4 29.7912 124.057C26.1186 124.625 22.619 126.021 19.5506 128.143C14.9765 131.228 11.7167 135.794 15.2332 142.409" stroke="#442257" stroke-width="1.5" stroke-linecap="round" stroke-linejoin="round"/>
<path d="M19.5455 130.818C16.6958 133.725 14.905 136.447 14.9091 141.25" stroke="#442257" stroke-width="1.5" stroke-linecap="round" stroke-linejoin="round"/>
<path d="M28.8182 125.023C32.8014 123.32 38.0018 120.732 42.1116 119.918C44.0923 119.521 44.9561 118.498 45.8985 117.213C47.072 115.601 48.1453 112.421 48.6601 110.187C50.4488 102.307 51.8624 94.1488 53.5159 86.2081C54.3404 82.2312 55.309 77.4224 57.089 73.7853C58.5243 70.8582 61.9447 68.8153 64.75 68.2273" stroke="#442257" stroke-width="1.5" stroke-linecap="round" stroke-linejoin="round"/>
<path d="M48.5227 63.8746C46.2194 63.4529 43.8511 63.5018 41.5682 64.0182" stroke="#442257" stroke-width="1.5" stroke-linecap="round" stroke-linejoin="round"/>
<path d="M13.75 85.6136C12.0264 83.4611 10.4747 81.1335 9.11365 78.6591" stroke="#442257" stroke-width="1.5" stroke-linecap="round" stroke-linejoin="round"/>
<path d="M2.15909 68.2273C3.24331 69.9509 4.47727 71.7046 4.47727 71.7046" stroke="#442257" stroke-width="1.5" stroke-linecap="round" stroke-linejoin="round"/>
<path d="M90.25 38.0909C93.6376 37.5528 98.3636 35.7727 98.3636 35.7727" stroke="#F15D4A" stroke-width="1.5" stroke-linecap="round" stroke-linejoin="round"/>
<path d="M99.5227 48.5227C97.0553 50.4468 95.0873 51.5085 92.5682 53.1591" stroke="#F15D4A" stroke-width="1.5" stroke-linecap="round" stroke-linejoin="round"/>
<path d="M49.6818 58.9546C47.8975 57.5274 42.7273 57.8203 42.7273 57.8203" stroke="#442257" stroke-width="1.5" stroke-linecap="round" stroke-linejoin="round"/>
<path d="M42.7273 51.1885C45.6348 50.9246 54.7303 50.2575 58.9545 52" stroke="#442257" stroke-width="1.5" stroke-linecap="round" stroke-linejoin="round"/>
<path d="M26.5 70.5455C28.2506 71.8255 30.1262 72.9941 32.3602 72.8519C34.3692 72.7289 37.5661 72.0062 39.25 70.7415" stroke="#442257" stroke-width="1.5" stroke-linecap="round" stroke-linejoin="round"/>
</svg>
