<svg width="217" height="292" viewBox="0 0 217 292" fill="none" xmlns="http://www.w3.org/2000/svg">
<path d="M46.408 123.573C45.5884 121.052 46.6041 116.169 47.054 113.563C47.7935 109.256 52.4799 89.4319 53.7718 83.8545C54.8587 79.1681 55.5537 76.0765 58.8413 75.5464C63.2248 74.8292 72.6734 77.1501 78.7007 78.7449C81.6052 79.5156 87.9711 80.5268 88.7729 83.5739C89.6639 86.9194 86.942 99.2769 85.6991 103.843C83.9172 110.32 82.6075 116.677 80.8479 123.141C79.9569 126.442 79.6406 129.641 75.7383 130.091L46.408 123.573Z" fill="#F15D4A" stroke="#F15D4A" stroke-width="1.5" stroke-linecap="round" stroke-linejoin="round"/>
<path d="M114.802 51.183L114.971 52.5729C111.621 51.7443 107.296 52.2165 107.786 56.658C108.2 60.4267 112.316 60.351 115.288 59.4244C115.399 63.2867 115.408 67.1489 115.381 71.0068" stroke="#442257" stroke-width="1.5" stroke-linecap="round" stroke-linejoin="round"/>
<path d="M137.294 45.8019C137.103 40.2512 136.884 34.3843 135.833 29.1633" stroke="#442257" stroke-width="1.5" stroke-linecap="round" stroke-linejoin="round"/>
<path d="M137.882 72.1203C137.882 72.1203 137.842 68.8773 137.779 64.8502" stroke="#442257" stroke-width="1.5" stroke-linecap="round" stroke-linejoin="round"/>
<path d="M123.378 42.1753V40.5181" stroke="#442257" stroke-width="1.5" stroke-linecap="round" stroke-linejoin="round"/>
<path d="M112.258 49.5303C111.612 48.1315 111.1 43.65 110.797 41.3514C110.418 38.536 110.494 35.5201 110.352 32.6958C110.209 29.8714 109.42 22.6369 113.915 24.6772C113.991 20.1422 124.366 20.8862 127.035 20.708C129.552 20.5387 132.518 20.0754 135.027 20.5387C136.483 20.806 139.57 22.3206 136.938 23.7194C138.626 24.4678 138.72 26.468 137.78 27.8223C136.02 30.4149 131.423 29.2032 129.489 28.0227C131.155 30.8515 128.429 33.0388 125.68 32.923C123.408 32.8294 121.506 31.5286 119.671 30.3927C119.671 31.5375 119.671 32.7403 119.056 33.756C118.566 34.5445 117.599 34.8875 117.31 35.627C116.481 37.7742 117.123 41.6677 116.891 44.0198C116.7 45.9621 116.762 47.1114 115.626 48.7463C114.886 49.7664 112.909 50.9336 112.258 49.5303Z" stroke="#442257" stroke-width="1.5" stroke-linecap="round" stroke-linejoin="round"/>
<path d="M138.528 72.0582C137.027 72.174 128.113 76.4728 128.113 76.4728C128.113 76.4728 115.903 72.958 114.963 71.0024C115.346 73.555 117.805 76.9183 119.177 79.1813C120.403 81.3203 121.79 83.3634 123.324 85.2933C123.957 83.4045 125.578 81.3464 126.567 79.6357C127.311 78.3438 128.122 76.5976 128.122 76.5976C128.122 76.5976 133.886 82.7051 134.898 83.3955C135.953 81.1388 136.893 78.8297 137.713 76.4773C138.227 75.0593 138.502 73.5661 138.528 72.0582V72.0582Z" stroke="#442257" stroke-width="1.5" stroke-linecap="round" stroke-linejoin="round"/>
<path d="M115.804 86.3754C118.406 90.6253 126.09 90.995 130.216 90.5674C134.443 90.1219 136.862 87.9524 139.571 85.1147" stroke="#442257" stroke-width="1.5" stroke-linecap="round" stroke-linejoin="round"/>
<path d="M128.638 79.8405C129.039 83.1503 129.124 90.5809 129.124 90.5809" stroke="#442257" stroke-width="1.5" stroke-linecap="round" stroke-linejoin="round"/>
<path d="M132.006 86.5761C131.993 86.3489 131.927 86.1279 131.815 85.9301" stroke="#442257" stroke-width="1.5" stroke-linecap="round" stroke-linejoin="round"/>
<path d="M162.303 96.8843C163.159 98.8978 163.377 101.067 163.871 103.157C165.003 107.892 165.123 112.957 165.845 117.755C169.306 140.724 170.571 163.973 172.705 187.076C172.963 189.869 173.4 197.085 173.596 200.146C173.623 200.568 173.518 200.989 173.295 201.349C173.072 201.709 172.743 201.99 172.353 202.155C171.251 202.621 170.115 203 168.954 203.291C165.752 204.058 162.494 204.57 159.212 204.823C155.037 205.229 151.006 205.616 146.293 205.714C145.045 183.944 144.275 162.213 142.729 140.443C141.107 117.746 139.611 95.0044 139.611 72.2583C143.504 72.2583 144.872 73.0379 146.823 77.8669C148.262 81.4307 149.224 85.8142 151.153 89.0305C150.507 90.1308 145.295 92.5587 144.676 93.2492C149.193 92.7146 151.091 94.3673 150.957 97.3788C150.783 101.388 149.937 106.132 149.536 110.11C148.992 115.456 148.146 121.163 147.259 126.473C146.017 133.935 143.357 150.145 143.357 150.145" stroke="#442257" stroke-width="1.5" stroke-linecap="round" stroke-linejoin="round"/>
<path d="M144.841 74.174C147.952 74.3473 151.028 74.9253 153.991 75.8936C156.784 76.7489 158.927 78.3927 160.259 81.7293C164.575 92.5143 169.231 98.5773 171.516 110.142C171.698 111.077 173.262 113.795 171.115 117.042C169.85 118.949 169.213 116.249 169.182 115.185C169.128 113.34 169.836 111.117 171.614 110.209C173.841 109.073 175.253 113.532 176.02 115.189C174.986 113.309 172.964 110.436 172.861 108.222C172.638 103.322 174.581 99.0717 175.556 94.412C177.089 87.0839 178.822 80.8517 180.421 73.5637C180.421 73.5637 189.736 77.3725 191.34 78.1833C194.128 79.5866 203.813 84.6561 204.704 85.3109C198.984 102.636 193.54 119.568 185.41 135.944C183.86 139.062 178.652 144.377 174.924 145.535C173.758 145.821 172.56 145.959 171.36 145.945C170.563 145.905 169.133 145.673 169.672 145.294" stroke="#442257" stroke-width="1.5" stroke-linecap="round" stroke-linejoin="round"/>
<path d="M150.841 103.504C152.351 103.38 159.546 103.794 159.546 103.794C159.546 103.794 160.695 112.066 160.829 114.254C160.958 116.316 161.501 118.481 161.43 120.517C157.26 120.205 152.757 120.299 148.658 120.308" stroke="#442257" stroke-width="1.5" stroke-linecap="round" stroke-linejoin="round"/>
<path d="M151.153 98.4572C153.3 98.2924 155.474 98.68 157.675 98.6666" stroke="#442257" stroke-width="1.5" stroke-linecap="round" stroke-linejoin="round"/>
<path d="M153.839 103.086C153.839 101.927 153.603 98.3189 153.394 97.7398" stroke="#442257" stroke-width="1.5" stroke-linecap="round" stroke-linejoin="round"/>
<path d="M150.993 119.809C151.438 117.92 152.329 115.572 154.196 115.568C156.762 115.568 158.552 119.746 158.588 120.089" stroke="#442257" stroke-width="1.5" stroke-linecap="round" stroke-linejoin="round"/>
<path d="M153.514 115.024C150.993 114.084 150.53 110.797 153.412 109.861C156.463 108.868 157.421 114.592 154.147 114.762" stroke="#442257" stroke-width="1.5" stroke-linecap="round" stroke-linejoin="round"/>
<path d="M154.089 151.589C159.172 152.663 164.335 155.598 168.607 158.534" stroke="#442257" stroke-width="1.5" stroke-linecap="round" stroke-linejoin="round"/>
<path d="M156.2 156.035C159.173 157.38 162.056 158.917 164.829 160.637" stroke="#442257" stroke-width="1.5" stroke-linecap="round" stroke-linejoin="round"/>
<path d="M111.194 151.415C111.194 151.415 105.403 154.81 102.837 156.449C101.055 157.599 98.952 158.677 97.3661 160.107" stroke="#442257" stroke-width="1.5" stroke-linecap="round" stroke-linejoin="round"/>
<path d="M110.543 156.85C110.543 156.85 105.135 159.438 102.97 161.06" stroke="#442257" stroke-width="1.5" stroke-linecap="round" stroke-linejoin="round"/>
<path d="M100.003 97.7087C99.8918 100.137 99.5131 102.654 99.1879 105.072C97.5575 117.31 96.0696 129.351 94.9425 141.659C93.9981 151.905 93.7887 162.267 93.0448 172.567C92.5637 179.169 92.0603 185.797 92.3989 192.413C92.586 195.976 92.1449 200.106 92.8666 203.55C95.1341 205.332 99.0187 206.222 101.945 206.508C108.284 207.163 114.662 207.361 121.03 207.1C120.838 204.356 121.243 200.917 121.475 198.106C121.992 191.936 121.881 185.793 122.134 179.57C122.348 174.224 121.373 169.056 121.279 163.719C121.172 157.652 120.758 151.415 120.232 145.308C119.626 138.488 119.101 131.663 118.994 124.816C118.927 120.624 117.813 105.959 117.501 102.711C116.954 97.045 114.695 76.4283 114.111 72.0403C114.111 72.0403 112.624 72.0893 111.22 72.1562C110.669 72.1843 110.138 72.3725 109.691 72.6976C109.245 73.0228 108.903 73.4708 108.708 73.9871C107.407 77.4039 105.483 80.3351 105.144 84.0682C104.877 86.9193 108.806 89.757 110.583 91.9799C108.801 90.5232 105.683 88.5675 105.108 92.3006C104.534 96.0337 107.977 105.309 109.376 109.581C112.356 118.691 119.684 145.219 120.25 147.616" stroke="#442257" stroke-width="1.5" stroke-linecap="round" stroke-linejoin="round"/>
<path d="M108.583 74.0002C102.347 75.2921 96.8273 79.1098 94.0698 82.8607" stroke="#442257" stroke-width="1.5" stroke-linecap="round" stroke-linejoin="round"/>
<path d="M94.6888 144.649C93.731 146.471 89.9444 147.718 88.0333 147.602C85.7035 147.46 82.3847 145.82 81.3289 142.925" stroke="#442257" stroke-width="1.5" stroke-linecap="round" stroke-linejoin="round"/>
<path d="M182.06 73.506C182.06 73.506 183.183 68.0489 184.123 65.5632C187.745 65.7681 193.162 67.8707 196.396 69.4255C198.984 70.6683 202.632 72.7086 205.123 74.0005C204.405 76.1655 202.102 83.8277 202.102 83.8277" stroke="#442257" stroke-width="1.5" stroke-linecap="round" stroke-linejoin="round"/>
<path d="M185.9 65.5318C186.793 60.6203 187.35 55.6535 187.566 50.6662C187.731 44.6433 186.582 38.4601 186.265 32.4373C186.145 30.1564 185.713 27.3277 187.9 26.1561C190.088 24.9845 191.977 25.9155 193.081 27.938C194.137 29.8624 197.402 38.7452 197.402 38.7452" stroke="#442257" stroke-width="1.5" stroke-linecap="round" stroke-linejoin="round"/>
<path d="M198.864 55.3483C197.157 55.3483 193.919 52.4438 196.908 50.0783C193.291 49.4903 193.589 44.4475 196.462 44.4297C195.393 43.7347 195.353 41.3826 196.462 39.9348C198.743 36.959 209.951 34.3352 212.344 37.8054C212.816 38.5494 213.426 40.162 213.079 41.1064C215.582 42.0954 215.582 44.1446 214.531 45.9131C217.351 47.4411 215.631 51.3078 213.386 52.1498C214.531 53.1967 213.132 56.1591 210.869 57.2282C206.713 59.2017 199.376 59.4957 198.864 55.3483Z" stroke="#442257" stroke-width="1.5" stroke-linecap="round" stroke-linejoin="round"/>
<path d="M207.417 58.3107C207.417 58.3107 205.029 68.6458 203.528 72.6417" stroke="#442257" stroke-width="1.5" stroke-linecap="round" stroke-linejoin="round"/>
<path d="M196.458 44.4298C198.24 44.5724 203.996 43.8463 205.742 43.4453C207.764 42.9998 211.533 42.3316 213.074 41.1066" stroke="#442257" stroke-width="1.5" stroke-linecap="round" stroke-linejoin="round"/>
<path d="M196.908 50.0781C200.579 50.3543 204.806 49.4054 208.339 48.4922C210.487 47.8541 212.561 46.9894 214.527 45.9129" stroke="#442257" stroke-width="1.5" stroke-linecap="round" stroke-linejoin="round"/>
<path d="M194.707 62.1684C195.046 62.3867 195.42 62.6139 195.758 62.7965" stroke="#442257" stroke-width="1.5" stroke-linecap="round" stroke-linejoin="round"/>
<path d="M199.732 92.256L200.783 92.4654" stroke="#442257" stroke-width="1.5" stroke-linecap="round" stroke-linejoin="round"/>
<path d="M198.712 96.7775L199.536 96.9423" stroke="#442257" stroke-width="1.5" stroke-linecap="round" stroke-linejoin="round"/>
<path d="M197.206 101.094L198.048 101.304" stroke="#442257" stroke-width="1.5" stroke-linecap="round" stroke-linejoin="round"/>
<path d="M120.233 136.22C122.255 137.044 122.905 136.666 125.293 136.706C127.743 136.755 130.465 136.038 132.844 136.238C134.354 136.367 135.713 137.022 137.37 137.08C139.268 137.147 140.417 136.1 142.101 135.793" stroke="#442257" stroke-width="1.5" stroke-linecap="round" stroke-linejoin="round"/>
<path d="M133.268 155.589C133.508 159.501 133.544 164.085 133.713 167.978C133.98 173.408 133.878 178.928 133.646 184.367C133.165 195.78 133.646 207.416 133.646 218.887C133.646 226.968 133.294 235.049 133.138 243.13C132.996 250.868 130.465 278.63 130.465 278.63C127.677 278.973 116.366 279.321 113.266 279.321C109.546 279.321 103.171 278.875 99.9013 278.875C99.9013 278.875 100.614 262.914 100.605 257.657C100.605 247.331 101.456 240.413 101.456 230.1V212.762C101.456 210.833 101.665 207.185 101.665 207.185" stroke="#442257" stroke-width="1.5" stroke-linecap="round" stroke-linejoin="round"/>
<path d="M166.722 203.982C167.702 207.051 167.404 211.51 166.927 214.673C166.281 218.994 162.918 221.275 159.8 224.162C153.138 230.283 146.028 235.897 138.528 240.956C137.53 241.642 133.12 244.908 133.12 244.908" stroke="#442257" stroke-width="1.5" stroke-linecap="round" stroke-linejoin="round"/>
<path d="M161.746 215.087C160.806 216.303 160.37 217.76 159.644 219.097" stroke="#442257" stroke-width="1.5" stroke-linecap="round" stroke-linejoin="round"/>
<path d="M101.077 233.232L89.9842 242.382C89.9842 242.382 92.2116 249.581 92.813 252.129C94.2563 257.982 96.7555 262.201 98.1097 268.086L100.391 266.869" stroke="#442257" stroke-width="1.5" stroke-linecap="round" stroke-linejoin="round"/>
<path d="M90.5544 244.382C87.6232 246.953 83.4268 249.02 80.1481 251.309C79.0789 252.053 76.0363 254.245 76.0363 254.245" stroke="#442257" stroke-width="1.5" stroke-linecap="round" stroke-linejoin="round"/>
<path d="M96.8497 266.451C95.3351 267.342 81.3516 275.895 81.3516 275.895" stroke="#442257" stroke-width="1.5" stroke-linecap="round" stroke-linejoin="round"/>
<path d="M74.5618 253.43L69.773 255.301C69.773 255.301 74.6153 278.465 75.4528 281.348C76.3215 284.346 76.6333 289.428 79.9076 290.391C80.754 290.64 89.4452 290.368 89.463 289.798C89.5254 288.203 90.354 286.435 88.7592 285.615C87.2891 284.858 84.79 285.615 83.2086 285.357C83.2086 285.357 80.8386 274.411 79.1993 269.409C77.5599 264.406 76.8427 258.94 75.19 253.888C75.4172 253.75 75.6043 253.728 74.5618 253.43Z" fill="#442257" stroke="#442257" stroke-width="1.5" stroke-linecap="round" stroke-linejoin="round"/>
<path d="M82.1355 277.232C84.256 276.599 87.8599 274.648 89.9314 275.512C91.691 276.247 90.2298 277.797 88.9246 278.63C87.2051 279.757 84.7282 279.967 82.7369 279.967C84.5723 279.726 89.1295 279.174 89.7354 281.842C90.6263 285.78 83.7615 280.862 82.7369 279.967" stroke="#442257" stroke-width="1.5" stroke-linecap="round" stroke-linejoin="round"/>
<path d="M136.893 290.823C136.929 289.968 136.898 289.112 136.8 288.261C135.552 286.132 132.22 287.304 130.269 287.428C124.844 287.736 119.407 287.736 113.982 287.428C109.527 287.215 105.393 286.631 100.894 286.921C100.671 291.656 102.133 290.827 105.652 290.823H136.893Z" fill="#442257" stroke="#442257" stroke-width="1.5" stroke-linecap="round" stroke-linejoin="round"/>
<path d="M101.705 285.785C101.487 285.183 101.861 280.083 101.941 279.437" stroke="#442257" stroke-width="1.5" stroke-linecap="round" stroke-linejoin="round"/>
<path d="M126.536 286.626C126.536 285.784 126.981 280.488 126.981 279.646" stroke="#442257" stroke-width="1.5" stroke-linecap="round" stroke-linejoin="round"/>
<path d="M127.806 286.943C129.552 284.042 131.009 277.757 135 277.427C136.337 279.891 134.078 283.151 131.797 284.189C132.946 282.523 136.573 280.871 138.479 281.307C139.441 285.138 130.674 287.33 127.806 286.943Z" stroke="#442257" stroke-width="1.5" stroke-linecap="round" stroke-linejoin="round"/>
<path d="M50.4483 77.395C48.4882 78.0275 44.7595 79.9832 42.5945 82.3264C39.5163 85.6497 37.6007 89.8193 36.1841 94.0513C33.5335 101.959 33.6003 109.006 36.3088 116.9C36.7543 118.205 38.505 122.598 40.3181 121.626" stroke="#442257" stroke-width="1.5" stroke-linecap="round" stroke-linejoin="round"/>
<path d="M37.4313 105.567C37.6585 107.941 38.7677 115.634 40.8347 116.534" stroke="#442257" stroke-width="1.5" stroke-linecap="round" stroke-linejoin="round"/>
<path d="M39.6766 97.4191C39.8325 100.021 39.9572 108.881 42.3495 110.12" stroke="#442257" stroke-width="1.5" stroke-linecap="round" stroke-linejoin="round"/>
<path d="M47.3432 90.5142C45.8197 91.9263 45.9488 94.0022 46.5146 96.0069" stroke="#442257" stroke-width="1.5" stroke-linecap="round" stroke-linejoin="round"/>
<path d="M15.7144 235.807L51.0318 76.9762C51.4606 75.0418 52.5806 73.3304 54.1817 72.1632C55.7827 70.9961 57.7547 70.4534 59.7275 70.637C64.6912 71.1406 69.625 71.9049 74.5085 72.9268C79.3024 74.0564 84.0326 75.4408 88.6791 77.0742C90.5434 77.7446 92.0993 79.0717 93.0554 80.8069C94.0116 82.5421 94.3024 84.5663 93.8733 86.5005L58.4713 245.718" stroke="#442257" stroke-width="1.5" stroke-linecap="round" stroke-linejoin="round"/>
<path d="M64.5124 70.8198C65.5191 68.2583 66.3745 65.1177 66.3745 65.1177L85.129 69.3764C85.129 69.3764 84.9553 72.9759 83.7347 75.2924" stroke="#442257" stroke-width="1.5" stroke-linecap="round" stroke-linejoin="round"/>
<path d="M69.1939 64.672C69.8665 61.665 71.448 55.4863 71.448 55.4863C75.6087 56.2792 80.2863 57.0588 84.4292 58.217C83.81 61.91 82.9814 64.6943 82.1528 68.2715" stroke="#442257" stroke-width="1.5" stroke-linecap="round" stroke-linejoin="round"/>
<path d="M78.206 56.0922L87.1601 15.83" stroke="#442257" stroke-width="1.5" stroke-linecap="round" stroke-linejoin="round"/>
<path d="M40.4787 250.944L33.8055 280.969" stroke="#442257" stroke-width="1.5" stroke-linecap="round" stroke-linejoin="round"/>
<path d="M30.0057 238.983L53.9145 130.995L66.5259 133.797L42.4969 241.87" stroke="#442257" stroke-width="1.5" stroke-linecap="round" stroke-linejoin="round"/>
<path d="M21.4167 277.775L27.9964 248.066" stroke="#442257" stroke-width="1.5" stroke-linecap="round" stroke-linejoin="round"/>
<path d="M6.1902 242.391C7.73601 243.518 9.80747 243.772 11.919 244.257C20.8776 246.324 29.8005 248.552 38.7724 250.556C44.9244 251.933 50.8894 253.376 57.0637 254.566C61.9372 255.519 67.0824 256.236 67.4834 251.813C67.8754 247.469 60.0216 246.097 55.7851 245.059C47.0137 242.921 38.0953 240.76 29.2704 238.823C24.7829 237.825 20.297 236.827 15.8125 235.829C13.447 235.294 9.45555 234.212 7.08116 234.604C4.15437 235.085 3.39261 237.673 4.35038 239.99C4.72299 240.949 5.36119 241.782 6.1902 242.391Z" stroke="#442257" stroke-width="1.5" stroke-linecap="round" stroke-linejoin="round"/>
<path d="M3.07196 279.779C4.38167 280.599 6.09229 280.84 7.84302 281.241C15.2736 282.942 22.6819 284.755 30.1169 286.417C35.2176 287.553 40.2648 288.702 45.2987 290.065C49.2679 291.139 54.5513 292.141 54.8275 287.655C55.0992 283.254 47.4727 283.9 43.9222 283.227C36.5674 281.842 29.2215 279.717 21.9246 278.091C18.2033 277.262 14.4836 276.435 10.7653 275.61C8.80079 275.164 5.10334 273.979 3.16551 274.171C0.7733 274.403 0.617393 276.465 1.47716 278.078C1.84697 278.777 2.39771 279.365 3.07196 279.779V279.779Z" stroke="#442257" stroke-width="1.5" stroke-linecap="round" stroke-linejoin="round"/>
<path d="M43.8667 124.65L43.4005 126.746C43.2087 127.608 43.7522 128.462 44.6144 128.654L77.4847 135.965C78.3469 136.157 79.2013 135.614 79.393 134.751L79.8592 132.655C80.051 131.793 79.5075 130.939 78.6454 130.747L45.775 123.436C44.9129 123.244 44.0585 123.788 43.8667 124.65Z" stroke="#442257" stroke-width="1.5" stroke-linecap="round" stroke-linejoin="round"/>
<path d="M34.585 249.607C33.3109 253.857 27.19 279.325 27.19 279.325" stroke="#442257" stroke-width="1.5" stroke-linecap="round" stroke-linejoin="round"/>
<path d="M60.369 133.431C55.4064 153.567 50.8893 176.643 46.3989 196.827C44.4432 205.621 39.7167 227.703 36.7766 240.529" stroke="#442257" stroke-width="1.5" stroke-linecap="round" stroke-linejoin="round"/>
<path d="M53.1747 110.953L53.7627 113.305" stroke="#FAB550" stroke-width="1.5" stroke-linecap="round" stroke-linejoin="round"/>
<path d="M64.8994 100.716L66.5477 99.9717" stroke="#FAB550" stroke-width="1.5" stroke-linecap="round" stroke-linejoin="round"/>
<path d="M59.0956 92.724L58.8595 93.7798" stroke="#FAB550" stroke-width="1.5" stroke-linecap="round" stroke-linejoin="round"/>
<path d="M58.7431 82.2551L59.2109 83.4713" stroke="#FAB550" stroke-width="1.5" stroke-linecap="round" stroke-linejoin="round"/>
<path d="M73.9342 88.7858L74.442 88.1577" stroke="#FAB550" stroke-width="1.5" stroke-linecap="round" stroke-linejoin="round"/>
<path d="M80.0329 81.8272L80.8971 81.2748" stroke="#FAB550" stroke-width="1.5" stroke-linecap="round" stroke-linejoin="round"/>
<path d="M81.7968 87.0973L82.9728 88.4694" stroke="#FAB550" stroke-width="1.5" stroke-linecap="round" stroke-linejoin="round"/>
<path d="M73.9522 96.0247L74.4244 97.2409" stroke="#FAB550" stroke-width="1.5" stroke-linecap="round" stroke-linejoin="round"/>
<path d="M72.5397 109.572L74.188 108.828" stroke="#FAB550" stroke-width="1.5" stroke-linecap="round" stroke-linejoin="round"/>
<path d="M82.3847 100.341L83.8726 100.301" stroke="#FAB550" stroke-width="1.5" stroke-linecap="round" stroke-linejoin="round"/>
<path d="M79.6854 104.783L80.0774 106.351" stroke="#FAB550" stroke-width="1.5" stroke-linecap="round" stroke-linejoin="round"/>
<path d="M76.304 123.582L76.8519 124.442" stroke="#FAB550" stroke-width="1.5" stroke-linecap="round" stroke-linejoin="round"/>
<path d="M77.8323 118.366L79.4004 117.974" stroke="#FAB550" stroke-width="1.5" stroke-linecap="round" stroke-linejoin="round"/>
<path d="M69.3277 116.984L70.2677 116.08" stroke="#FAB550" stroke-width="1.5" stroke-linecap="round" stroke-linejoin="round"/>
<path d="M68.9803 124.477L67.8978 124.437" stroke="#FAB550" stroke-width="1.5" stroke-linecap="round" stroke-linejoin="round"/>
<path d="M61.443 112.129L62.619 113.501" stroke="#FAB550" stroke-width="1.5" stroke-linecap="round" stroke-linejoin="round"/>
<path d="M65.2288 106.217L66.2133 106.485" stroke="#FAB550" stroke-width="1.5" stroke-linecap="round" stroke-linejoin="round"/>
<path d="M65.9956 93.156L65.4476 92.2918" stroke="#FAB550" stroke-width="1.5" stroke-linecap="round" stroke-linejoin="round"/>
<path d="M54.0347 103.816L52.8988 103.937" stroke="#FAB550" stroke-width="1.5" stroke-linecap="round" stroke-linejoin="round"/>
<path d="M52.6939 98.8756L52.6538 97.3877" stroke="#FAB550" stroke-width="1.5" stroke-linecap="round" stroke-linejoin="round"/>
<path d="M48.3098 118.366L49.8779 117.974" stroke="#FAB550" stroke-width="1.5" stroke-linecap="round" stroke-linejoin="round"/>
<path d="M58.8409 121.462L59.5848 119.773" stroke="#FAB550" stroke-width="1.5" stroke-linecap="round" stroke-linejoin="round"/>
<path d="M68.6732 84.6563L68.201 83.4401" stroke="#FAB550" stroke-width="1.5" stroke-linecap="round" stroke-linejoin="round"/>
<path d="M64.5077 78.375L65.7239 77.9028" stroke="#FAB550" stroke-width="1.5" stroke-linecap="round" stroke-linejoin="round"/>
<path d="M85.1957 5.55273C85.1467 4.83551 83.5207 2.54131 82.9683 2.11365" stroke="#FAB550" stroke-width="1.5" stroke-linecap="round" stroke-linejoin="round"/>
<path d="M92.0206 4.9202C92.4349 3.4234 93.7535 2.11815 94.8227 1" stroke="#FAB550" stroke-width="1.5" stroke-linecap="round" stroke-linejoin="round"/>
<path d="M97.7625 10.0878C99.1625 9.29176 100.79 8.99046 102.382 9.23244" stroke="#FAB550" stroke-width="1.5" stroke-linecap="round" stroke-linejoin="round"/>
<path d="M139.486 47.7438C138.02 44.6032 133.583 45.4674 130.336 45.5432C126.507 45.6613 122.727 46.4389 119.163 47.8418C120.571 49.9267 120.5 54.8804 120.379 57.473C120.338 59.2556 120.113 61.0291 119.707 62.7653L119.573 63.1573C122.878 64.4136 126.095 65.5139 129.654 65.6609C131.93 65.7544 135.169 65.9505 137.339 65.064C138.933 64.4091 140.011 63.3444 140.314 61.6427C141.103 57.5131 141.308 51.6506 139.486 47.7438Z" fill="#ABDDDF" stroke="#ABDDDF" stroke-width="1.5" stroke-linecap="round" stroke-linejoin="round"/>
<path d="M120.807 52.1673C122.116 51.8585 123.444 51.6308 124.781 51.4857" stroke="#442257" stroke-width="1.5" stroke-linecap="round" stroke-linejoin="round"/>
<path d="M120.393 58.7562C121.025 58.921 123.774 59.8342 124.304 60.0926" stroke="#442257" stroke-width="1.5" stroke-linecap="round" stroke-linejoin="round"/>
<path d="M119.573 63.1576C118.455 62.8012 114.045 61.0906 114.045 61.0906" stroke="#ABDDDF" stroke-width="1.5" stroke-linecap="round" stroke-linejoin="round"/>
<path d="M113.911 50.7774C113.911 50.7774 116.842 48.7371 119.163 47.8372" stroke="#ABDDDF" stroke-width="1.5" stroke-linecap="round" stroke-linejoin="round"/>
<path d="M133.476 41.5474V39.8858" stroke="#442257" stroke-width="1.5" stroke-linecap="round" stroke-linejoin="round"/>
<path d="M150.574 106.805C151.594 106.805 155.759 107.014 156.762 106.916" stroke="#442257" stroke-width="1.5" stroke-linecap="round" stroke-linejoin="round"/>
<path d="M198.863 55.3481C200.645 55.4862 204.94 54.769 206.686 54.3725C208.708 53.927 211.756 53.2366 213.368 52.1451" stroke="#442257" stroke-width="1.5" stroke-linecap="round" stroke-linejoin="round"/>
</svg>
